<?xml version="1.0" encoding="UTF-8"?>
<svg width="467px" height="328px" viewBox="0 0 467 328" version="1.1" xmlns="http://www.w3.org/2000/svg" xmlns:xlink="http://www.w3.org/1999/xlink">
    <!-- Generator: Sketch 54 (76480) - https://sketchapp.com -->
    <title>logo-CBDC</title>
    <desc>Created with Sketch.</desc>
    <g id="Page-1" stroke="none" stroke-width="1" fill="none" fill-rule="evenodd">
        <g id="logo-CBDC" transform="translate(0.000000, -1.000000)">
            <polygon id="Fill-1" fill="#939597" points="138.769 113.925 143.289 113.925 143.289 109.404 138.769 109.404"></polygon>
            <polygon id="Fill-2" fill="#939597" points="144.091 113.925 148.589 113.925 148.589 109.404 144.091 109.404"></polygon>
            <polygon id="Fill-3" fill="#939597" points="149.381 113.925 153.9 113.925 153.9 109.404 149.381 109.404"></polygon>
            <polygon id="Fill-4" fill="#939597" points="154.701 113.925 159.201 113.925 159.201 109.404 154.701 109.404"></polygon>
            <polygon id="Fill-5" fill="#939597" points="138.769 108.699 143.289 108.699 143.289 104.172 138.769 104.172"></polygon>
            <polygon id="Fill-6" fill="#939597" points="144.091 108.699 148.589 108.699 148.589 104.172 144.091 104.172"></polygon>
            <polygon id="Fill-7" fill="#939597" points="149.381 108.699 153.9 108.699 153.9 104.172 149.381 104.172"></polygon>
            <polygon id="Fill-8" fill="#939597" points="154.701 108.699 159.201 108.699 159.201 104.172 154.701 104.172"></polygon>
            <polygon id="Fill-9" fill="#939597" points="165.322 108.699 169.838 108.699 169.838 104.172 165.322 104.172"></polygon>
            <polygon id="Fill-10" fill="#939597" points="138.769 103.49 143.289 103.49 143.289 98.982 138.769 98.982"></polygon>
            <polygon id="Fill-11" fill="#939597" points="144.091 103.49 148.589 103.49 148.589 98.982 144.091 98.982"></polygon>
            <polygon id="Fill-12" fill="#939597" points="154.701 103.49 159.201 103.49 159.201 98.982 154.701 98.982"></polygon>
            <polygon id="Fill-13" fill="#939597" points="160.001 103.49 164.52 103.49 164.52 98.982 160.001 98.982"></polygon>
            <polygon id="Fill-14" fill="#939597" points="165.322 103.49 169.838 103.49 169.838 98.982 165.322 98.982"></polygon>
            <polygon id="Fill-15" fill="#939597" points="144.091 98.272 148.589 98.272 148.589 93.762 144.091 93.762"></polygon>
            <polygon id="Fill-16" fill="#939597" points="149.381 98.272 153.9 98.272 153.9 93.762 149.381 93.762"></polygon>
            <polygon id="Fill-17" fill="#939597" points="154.701 98.272 159.201 98.272 159.201 93.762 154.701 93.762"></polygon>
            <polygon id="Fill-18" fill="#939597" points="160.001 98.272 164.52 98.272 164.52 93.762 160.001 93.762"></polygon>
            <polygon id="Fill-19" fill="#939597" points="170.614 98.272 175.155 98.272 175.155 93.762 170.614 93.762"></polygon>
            <polygon id="Fill-20" fill="#939597" points="144.091 93.07 148.589 93.07 148.589 88.547 144.091 88.547"></polygon>
            <polygon id="Fill-21" fill="#939597" points="149.381 93.07 153.9 93.07 153.9 88.547 149.381 88.547"></polygon>
            <polygon id="Fill-22" fill="#939597" points="154.701 93.07 159.201 93.07 159.201 88.547 154.701 88.547"></polygon>
            <polygon id="Fill-23" fill="#939597" points="160.001 93.07 164.52 93.07 164.52 88.547 160.001 88.547"></polygon>
            <polygon id="Fill-24" fill="#939597" points="165.322 93.07 169.838 93.07 169.838 88.547 165.322 88.547"></polygon>
            <polygon id="Fill-25" fill="#939597" points="170.614 93.07 175.155 93.07 175.155 88.547 170.614 88.547"></polygon>
            <polygon id="Fill-26" fill="#939597" points="175.927 93.07 180.446 93.07 180.446 88.547 175.927 88.547"></polygon>
            <polygon id="Fill-27" fill="#939597" points="186.563 93.07 191.081 93.07 191.081 88.547 186.563 88.547"></polygon>
            <polygon id="Fill-28" fill="#939597" points="154.701 87.86 159.201 87.86 159.201 83.35 154.701 83.35"></polygon>
            <polygon id="Fill-29" fill="#939597" points="160.001 87.86 164.52 87.86 164.52 83.35 160.001 83.35"></polygon>
            <polygon id="Fill-30" fill="#939597" points="170.614 87.86 175.155 87.86 175.155 83.35 170.614 83.35"></polygon>
            <polygon id="Fill-31" fill="#939597" points="181.242 87.86 185.755 87.86 185.755 83.35 181.242 83.35"></polygon>
            <polygon id="Fill-32" fill="#939597" points="149.381 82.664 153.9 82.664 153.9 78.133 149.381 78.133"></polygon>
            <polygon id="Fill-33" fill="#939597" points="154.701 82.664 159.201 82.664 159.201 78.133 154.701 78.133"></polygon>
            <polygon id="Fill-34" fill="#939597" points="160.001 82.664 164.52 82.664 164.52 78.133 160.001 78.133"></polygon>
            <polygon id="Fill-35" fill="#939597" points="165.322 82.664 169.838 82.664 169.838 78.133 165.322 78.133"></polygon>
            <polygon id="Fill-36" fill="#939597" points="170.614 82.664 175.155 82.664 175.155 78.133 170.614 78.133"></polygon>
            <polygon id="Fill-37" fill="#939597" points="181.242 82.664 185.755 82.664 185.755 78.133 181.242 78.133"></polygon>
            <polygon id="Fill-38" fill="#939597" points="207.775 82.664 212.317 82.664 212.317 78.133 207.775 78.133"></polygon>
            <polygon id="Fill-39" fill="#939597" points="154.701 77.433 159.201 77.433 159.201 72.912 154.701 72.912"></polygon>
            <polygon id="Fill-40" fill="#939597" points="165.322 77.433 169.838 77.433 169.838 72.912 165.322 72.912"></polygon>
            <polygon id="Fill-41" fill="#939597" points="175.927 77.433 180.446 77.433 180.446 72.912 175.927 72.912"></polygon>
            <polygon id="Fill-42" fill="#939597" points="186.563 77.433 191.081 77.433 191.081 72.912 186.563 72.912"></polygon>
            <polygon id="Fill-43" fill="#939597" points="170.614 72.227 175.155 72.227 175.155 67.707 170.614 67.707"></polygon>
            <polygon id="Fill-44" fill="#939597" points="181.242 72.227 185.755 72.227 185.755 67.707 181.242 67.707"></polygon>
            <polygon id="Fill-45" fill="#939597" points="175.927 67.024 180.446 67.024 180.446 62.508 175.927 62.508"></polygon>
            <polygon id="Fill-46" fill="#939597" points="186.563 67.024 191.081 67.024 191.081 62.508 186.563 62.508"></polygon>
            <polygon id="Fill-47" fill="#939597" points="197.168 67.024 201.687 67.024 201.687 62.508 197.168 62.508"></polygon>
            <polygon id="Fill-48" fill="#939597" points="170.614 61.808 175.155 61.808 175.155 57.279 170.614 57.279"></polygon>
            <polygon id="Fill-49" fill="#939597" points="197.168 56.592 201.687 56.592 201.687 52.071 197.168 52.071"></polygon>
            <polygon id="Fill-50" fill="#939597" points="213.081 56.592 217.606 56.592 217.606 52.071 213.081 52.071"></polygon>
            <polygon id="Fill-51" fill="#939597" points="197.168 51.388 201.687 51.388 201.687 46.855 197.168 46.855"></polygon>
            <polygon id="Fill-52" fill="#939597" points="197.168 46.175 201.687 46.175 201.687 41.649 197.168 41.649"></polygon>
            <polygon id="Fill-53" fill="#939597" points="202.481 40.966 206.997 40.966 206.997 36.443 202.481 36.443"></polygon>
            <polygon id="Fill-54" fill="#231F20" points="126.38 101.516 137.929 101.516 137.929 99.35 126.38 99.35"></polygon>
            <path d="M113.4981,52.2827 C111.6361,52.0817 111.7271,52.6677 109.2681,53.0667 C106.8201,53.4597 105.4211,56.0007 107.8871,55.7257 C110.3541,55.4157 111.4331,55.3257 113.5951,54.4317 C115.7591,53.5577 113.4981,52.2827 113.4981,52.2827 L113.4981,52.2827 Z M115.3751,61.4177 C112.8151,61.1257 113.0191,61.9987 112.3181,62.3437 C111.4331,62.7827 113.9891,63.1797 115.9721,63.0947 C117.9271,62.9817 117.9271,61.7007 115.3751,61.4177 L115.3751,61.4177 Z M138.0491,114.7907 L138.7681,114.7907 L157.4231,114.7907 C152.0371,120.8207 139.3611,131.0427 110.6401,141.2247 C59.7121,159.3377 9.9371,137.6017 39.0861,96.2167 C67.5771,55.7257 112.7081,46.1757 117.4331,45.3877 C122.1391,44.6027 130.0171,44.1147 126.1881,45.2867 C122.3491,46.4837 115.1661,49.4277 115.5791,50.4997 C115.9721,51.5927 120.6851,50.4137 123.3151,50.0077 C125.9871,49.6237 125.9871,51.4897 124.4191,52.2827 C122.8581,53.0667 121.5711,52.2827 122.5501,53.2557 C123.5511,54.2497 122.9521,54.9287 121.3601,55.6217 C119.8071,56.3117 115.4701,56.0007 113.9891,57.3967 C112.5071,58.7517 116.7311,58.7517 119.6971,57.5797 C122.6421,56.4087 123.3151,56.1107 126.5791,55.9117 C129.8131,55.7257 126.7671,57.6867 128.3441,58.3697 C129.9281,59.0537 137.8941,57.4877 135.8241,58.7517 C133.7681,60.0377 139.7691,60.0377 135.6221,61.2267 C131.4941,62.3957 92.7691,66.7307 63.0641,86.1997 C33.3781,105.6617 29.4481,145.9567 79.9831,135.9377 C116.8261,128.6167 132.2361,111.7987 137.8941,103.2287 L137.8941,114.7907 L138.0491,114.7907 Z" id="Fill-55" fill="#939597"></path>
            <path d="M73.458,101.0645 C73.458,87.7445 84.229,76.9705 97.53,76.9705 C110.849,76.9705 121.626,87.7445 121.626,101.0645 C121.626,114.3675 110.849,125.1365 97.53,125.1365 C84.229,125.1365 73.458,114.3675 73.458,101.0645" id="Fill-57" fill="#F58A1E"></path>
            <path d="M81.2041,90.5606 C80.1511,88.1896 81.2301,85.4126 83.5921,84.3476 C85.9841,83.2966 88.7711,84.3596 89.8301,86.7446 C90.9051,89.1286 89.8301,91.9156 87.4401,92.9706 C85.0661,94.0396 82.2661,92.9516 81.2041,90.5606" id="Fill-59" fill="#FEFEFE"></path>
            <path d="M134.9346,45.2906 C134.9346,44.2036 130.3156,44.1196 129.6196,45.1036 C128.9396,46.0756 126.4816,45.6936 126.2726,46.5666 C126.1006,47.4726 128.3436,47.2516 130.3156,46.4886 C132.2996,45.6936 134.9346,46.3786 134.9346,45.2906" id="Fill-61" fill="#939597"></path>
            <path d="M138.373,48.3374 C137.696,47.5604 133.157,47.2514 131.787,47.9424 C130.398,48.6434 128.634,49.3384 127.758,49.3384 C126.877,49.3384 128.158,50.4134 130.514,50.4134 C132.864,50.4134 132.574,49.8094 134.935,50.2044 C137.296,50.5964 139.05,49.1344 138.373,48.3374" id="Fill-63" fill="#939597"></path>
            <path d="M131.7871,52.4624 C129.3351,53.0664 128.7541,53.3494 127.4541,53.6524 C126.1811,53.9484 127.3711,54.9344 130.2161,54.3434 C133.0631,53.7574 133.9461,53.5584 135.3221,53.4594 C136.7101,53.3494 136.5071,52.0814 134.8331,51.9744 C133.1701,51.8904 131.7871,52.4624 131.7871,52.4624" id="Fill-65" fill="#939597"></path>
            <path d="M142.2012,51.5816 C141.4582,50.4626 139.1492,51.1946 138.1692,51.7806 C137.2072,52.3826 137.3922,52.4626 139.0502,52.7686 C140.7372,53.0666 142.2532,52.0816 142.2012,51.5816" id="Fill-67" fill="#939597"></path>
            <path d="M148.2979,53.8511 C147.6919,53.5581 142.7999,54.2491 142.0159,54.0501 C141.2289,53.8511 140.1439,54.8301 138.4679,54.8301 C136.7969,54.8301 134.1609,54.9391 135.1279,56.0001 C136.1189,57.0931 140.3529,56.5021 142.2009,56.1001 C144.0909,55.7261 146.0439,54.8301 147.8189,55.2301 C149.5739,55.6111 148.5439,53.9131 148.2979,53.8511" id="Fill-69" fill="#939597"></path>
            <polygon id="Fill-71" fill="#231F20" points="8.511 101.44 67.878 101.44 67.878 99.27 8.511 99.27"></polygon>
            <polygon id="Fill-73" fill="#231F20" points="96.503 191.99 98.651 191.99 98.651 132.611 96.503 132.611"></polygon>
            <polygon id="Fill-74" fill="#231F20" points="96.503 68.877 98.651 68.877 98.651 9.523 96.503 9.523"></polygon>
            <polygon id="Fill-75" fill="#231F20" points="170.667 101.516 342.695 101.516 342.695 99.35 170.667 99.35"></polygon>
            <path d="M342.5303,100.4278 C342.5303,98.0528 344.4663,96.1078 346.8633,96.1078 C349.2553,96.1078 351.1843,98.0528 351.1843,100.4278 C351.1843,102.8208 349.2553,104.7658 346.8633,104.7658 C344.4663,104.7658 342.5303,102.8208 342.5303,100.4278" id="Fill-76" fill="#D72C24"></path>
            <path d="M93.2529,5.3189 C93.2529,2.9339 95.1719,0.9999 97.5719,0.9999 C99.9639,0.9999 101.9039,2.9339 101.9039,5.3189 C101.9039,7.7139 99.9639,9.6569 97.5719,9.6569 C95.1719,9.6569 93.2529,7.7139 93.2529,5.3189" id="Fill-77" fill="#D72C24"></path>
            <path d="M153.7783,177.5 C153.7783,176.18 153.4233,175.131 152.6983,174.367 C151.9693,173.607 150.8713,173.223 149.3813,173.223 L139.5493,173.223 L139.5493,181.898 L149.3043,181.898 C150.8373,181.898 151.9693,181.484 152.6983,180.656 C153.4233,179.818 153.7783,178.781 153.7783,177.5 M152.7433,160.307 C152.7433,159.318 152.4813,158.471 151.9353,157.783 C151.3783,157.105 150.3723,156.766 148.8683,156.766 L139.5493,156.766 L139.5493,163.852 L148.8683,163.852 C150.3193,163.852 151.3343,163.527 151.9093,162.873 C152.4643,162.236 152.7433,161.367 152.7433,160.307 M165.9073,177.27 C165.9073,181.854 164.5193,185.391 161.7603,187.895 C158.9843,190.414 154.7803,191.672 149.1163,191.672 L127.6793,191.672 L127.6793,146.998 L149.2603,146.998 C154.7803,146.998 158.7723,148.006 161.2193,150 C163.6593,152.01 164.8953,154.875 164.8953,158.631 C164.8953,161.064 164.3683,162.926 163.3243,164.199 C162.2843,165.48 161.0183,166.541 159.5223,167.395 C161.5703,168.238 163.1543,169.457 164.2473,171.053 C165.3563,172.639 165.9073,174.723 165.9073,177.27" id="Fill-78" fill="#231F20"></path>
            <polygon id="Fill-79" fill="#231F20" points="170.878 191.666 183.533 191.666 183.533 146.998 170.878 146.998"></polygon>
            <path d="M219.1309,191.666 L208.4639,176.922 C207.9529,176.25 207.3779,175.414 206.6859,174.41 C205.9979,173.404 205.3229,172.4 204.6749,171.408 C204.0079,170.406 203.3939,169.447 202.8259,168.553 C202.2619,167.668 201.8069,166.971 201.5109,166.455 C201.5899,166.971 201.6479,167.674 201.6989,168.592 C201.7489,169.52 201.7829,170.512 201.8249,171.602 C201.8739,172.678 201.8979,173.803 201.8979,174.953 L201.8979,178.004 L201.8979,191.666 L190.0299,191.666 L190.0299,146.998 L200.9359,146.998 L210.7699,160.217 C211.2819,160.885 211.8859,161.727 212.5809,162.764 C213.2839,163.766 213.9779,164.799 214.6629,165.818 C215.3399,166.848 215.9619,167.814 216.5189,168.686 C217.0659,169.588 217.4819,170.268 217.7249,170.725 C217.6459,170.23 217.5729,169.52 217.5439,168.592 C217.4939,167.674 217.4429,166.691 217.3899,165.598 C217.3599,164.502 217.3429,163.402 217.3429,162.24 L217.3429,159.182 L217.3429,146.998 L229.2099,146.998 L229.2099,191.666 L219.1309,191.666 Z" id="Fill-80" fill="#231F20"></path>
            <path d="M272.833,181.6524 C271.842,184.1464 270.448,186.2114 268.67,187.7974 C266.905,189.3964 264.84,190.5564 262.435,191.2794 C260.016,191.9904 257.417,192.3674 254.619,192.3674 C251.801,192.3674 249.207,191.9904 246.819,191.2794 C244.436,190.5564 242.38,189.3964 240.662,187.7974 C238.955,186.2114 237.596,184.1464 236.623,181.6524 C235.621,179.1464 235.138,176.1034 235.138,172.5934 L235.138,147.0074 L247.776,147.0074 L247.776,172.5934 C247.776,175.3494 248.347,177.5254 249.461,179.0934 C250.613,180.6754 252.357,181.4534 254.789,181.4534 C257.226,181.4534 258.983,180.6754 260.055,179.0934 C261.147,177.5254 261.7,175.3494 261.7,172.5934 L261.7,147.0074 L274.323,147.0074 L274.323,172.5934 C274.323,176.1034 273.829,179.1464 272.833,181.6524" id="Fill-81" fill="#231F20"></path>
            <path d="M315.8145,177.9493 C315.8145,180.4963 315.3355,182.6813 314.4365,184.5313 C313.5105,186.3453 312.2325,187.8403 310.5955,188.9823 C308.9635,190.1233 307.0215,190.9863 304.7675,191.5413 C302.5135,192.0943 300.0435,192.3713 297.3665,192.3713 C293.7415,192.3713 290.2885,191.8443 286.9965,190.7973 C283.7025,189.7543 280.8855,188.4783 278.5355,186.9493 L284.5335,177.2363 C285.3465,177.7973 286.2975,178.3423 287.3795,178.8653 C288.4555,179.4023 289.5945,179.8943 290.7665,180.2973 C291.9265,180.7303 293.0985,181.0663 294.2955,181.3283 C295.4965,181.5783 296.5945,181.7193 297.6195,181.7193 C299.8265,181.7193 301.3715,181.5003 302.1735,181.0663 C303.0025,180.6523 303.4345,179.9083 303.4345,178.8423 C303.4345,178.4123 303.3085,178.0333 303.0885,177.6873 C302.8375,177.3513 302.4275,177.0213 301.8545,176.6973 C301.2805,176.3753 300.5265,176.0583 299.5365,175.7403 C298.5525,175.4313 297.3215,175.0923 295.8255,174.7443 C293.1515,174.1273 290.8055,173.4373 288.8265,172.7153 C286.7975,171.9823 285.1475,171.0783 283.8455,169.9963 C282.5255,168.9143 281.5235,167.6093 280.8565,166.0623 C280.2065,164.5413 279.8715,162.6583 279.8715,160.4003 C279.8715,158.3163 280.2875,156.4003 281.1135,154.6523 C281.9605,152.9063 283.1335,151.4263 284.6645,150.1853 C286.1935,148.9473 288.0285,148.0063 290.2025,147.3163 C292.3815,146.6273 294.8055,146.2913 297.4855,146.2913 C301.3195,146.2913 304.6395,146.7423 307.4715,147.6253 C310.3055,148.5293 312.9125,149.7953 315.2895,151.4553 L309.2885,161.1583 C307.2885,159.8063 305.3035,158.7503 303.3005,158.0373 C301.2955,157.3103 299.1385,156.9593 296.8425,156.9593 C294.9785,156.9593 293.7415,157.2053 293.1515,157.7073 C292.5655,158.2193 292.2565,158.8793 292.2565,159.6913 C292.2565,160.1213 292.3815,160.5003 292.6045,160.7973 C292.8245,161.1173 293.2525,161.4263 293.7815,161.7073 C294.3405,161.9633 295.0935,162.2633 296.0165,162.5493 C296.9525,162.8083 298.1605,163.1273 299.5875,163.4593 C302.3995,164.1333 304.8355,164.8813 306.8755,165.6893 C308.9125,166.5083 310.5955,167.4493 311.9055,168.5583 C313.2315,169.6723 314.2135,170.9943 314.8525,172.5213 C315.4855,174.0533 315.8145,175.8553 315.8145,177.9493" id="Fill-82" fill="#231F20"></path>
            <path d="M93.2998,196.1621 C93.2998,193.7731 95.2238,191.8441 97.6158,191.8441 C100.0038,191.8441 101.9438,193.7731 101.9438,196.1621 C101.9438,198.5531 100.0038,200.4921 97.6158,200.4921 C95.2238,200.4921 93.2998,198.5531 93.2998,196.1621" id="Fill-83" fill="#D72C24"></path>
            <path d="M0,100.3575 C0,97.9705 1.924,96.0275 4.321,96.0275 C6.714,96.0275 8.639,97.9705 8.639,100.3575 C8.639,102.7525 6.714,104.6935 4.321,104.6935 C1.924,104.6935 0,102.7525 0,100.3575" id="Fill-84" fill="#D72C24"></path>
            <path d="M149.4639,237.1426 C147.2349,239.6276 144.1309,240.8706 140.1499,240.8706 C138.2769,240.8706 136.5619,240.5576 135.0019,239.9326 C133.4429,239.3076 132.1119,238.3926 131.0129,237.1876 C129.9139,235.9816 129.0599,234.5006 128.4499,232.7456 C127.8409,230.9896 127.5369,228.9656 127.5369,226.6726 L127.5369,209.1276 L133.7429,209.1276 L133.7429,226.5836 C133.7429,229.1146 134.3099,231.1086 135.4439,232.5666 C136.5799,234.0246 138.1479,234.7536 140.1499,234.7536 C142.1509,234.7536 143.7259,234.0386 144.8749,232.6116 C146.0259,231.1826 146.6009,229.2036 146.6009,226.6726 L146.6009,209.1276 L152.8069,209.1276 L152.8069,226.5836 C152.8069,231.1376 151.6919,234.6576 149.4639,237.1426" id="Fill-85" fill="#0096D9"></path>
            <path d="M180.4414,240.3789 L168.9674,223.3239 C168.5804,222.7299 168.1704,222.0969 167.7404,221.4279 C167.3074,220.7579 166.9884,220.2149 166.7804,219.7979 C166.7804,220.0959 166.7874,220.5339 166.8024,221.1149 C166.8174,221.6949 166.8244,222.3279 166.8244,223.0119 C166.8244,223.6669 166.8324,224.3219 166.8464,224.9769 C166.8614,225.6319 166.8694,226.1819 166.8694,226.6289 L166.8694,240.3789 L160.6634,240.3789 L160.6634,209.1279 L166.6904,209.1279 L177.7254,225.6469 C178.1104,226.2419 178.5184,226.8739 178.9494,227.5439 C179.3794,228.2129 179.6984,228.7569 179.9054,229.1729 C179.9054,228.8759 179.8984,228.4369 179.8834,227.8569 C179.8684,227.2749 179.8614,226.6579 179.8614,226.0029 C179.8614,225.3189 179.8534,224.6499 179.8384,223.9939 C179.8234,223.3399 179.8164,222.7889 179.8164,222.3429 L179.8164,209.1279 L186.0224,209.1279 L186.0224,240.3789 L180.4414,240.3789 Z" id="Fill-86" fill="#0096D9"></path>
            <polygon id="Fill-87" fill="#0096D9" points="194.46 240.379 200.665 240.379 200.665 209.128 194.46 209.128"></polygon>
            <path d="M224.1494,240.3789 L218.0774,240.3789 L206.9614,209.1279 L213.8804,209.1279 L219.7734,227.2089 C219.9214,227.6549 220.0714,228.1169 220.2204,228.5929 C220.3694,229.0689 220.5104,229.5379 220.6444,229.9989 C220.7784,230.4609 220.8964,230.8999 221.0024,231.3159 C221.1054,231.7329 221.1874,232.0749 221.2474,232.3429 C221.3954,231.7479 221.5964,230.9749 221.8494,230.0219 C222.1024,229.0689 222.3784,228.1319 222.6754,227.2089 L228.4344,209.1279 L235.2654,209.1279 L224.1494,240.3789 Z" id="Fill-88" fill="#0096D9"></path>
            <polygon id="Fill-89" fill="#0096D9" points="241.0684 240.3789 241.0684 209.1279 262.7214 209.1279 262.7214 215.2439 247.2744 215.2439 247.2744 220.6019 256.2484 220.6019 256.2484 226.7179 247.2744 226.7179 247.2744 234.2629 263.3914 234.2629 263.3914 240.3789"></polygon>
            <path d="M287.7852,216.1543 C286.9932,215.5483 285.8952,215.2443 284.4922,215.2443 L276.2932,215.2443 L276.2932,223.2353 L284.4922,223.2353 C287.4782,223.2353 288.9722,221.8883 288.9722,219.1953 C288.9722,217.7743 288.5762,216.7603 287.7852,216.1543 L287.7852,216.1543 Z M288.1962,240.3793 L282.6022,229.1293 L276.2932,229.1293 L276.2932,240.3793 L270.0872,240.3793 L270.0872,209.1283 L284.6412,209.1283 C286.0992,209.1283 287.4832,209.3283 288.7942,209.7303 C290.1032,210.1323 291.2492,210.7503 292.2312,211.5833 C293.2142,212.4173 293.9872,213.4513 294.5532,214.6853 C295.1182,215.9213 295.4012,217.3723 295.4012,219.0393 C295.4012,221.3903 294.9022,223.3173 293.9052,224.8203 C292.9082,226.3233 291.4122,227.4623 289.4192,228.2353 L295.4012,240.3793 L288.1962,240.3793 Z" id="Fill-90" fill="#0096D9"></path>
            <path d="M324.1533,234.9873 C323.6763,236.2053 322.9323,237.2533 321.9213,238.1303 C320.9083,239.0063 319.6353,239.6813 318.1033,240.1573 C316.5703,240.6333 314.7323,240.8703 312.5903,240.8703 C309.9703,240.8703 307.5903,240.3643 305.4463,239.3523 C303.3033,238.3413 301.6363,236.9573 300.4463,235.2003 L304.9563,231.1823 C306.0563,232.4623 307.2843,233.3783 308.6383,233.9273 C309.9933,234.4793 311.4283,234.7543 312.9473,234.7543 C314.8223,234.7543 316.1983,234.4863 317.0773,233.9503 C317.9543,233.4143 318.3933,232.5513 318.3933,231.3603 C318.3933,230.8553 318.3043,230.4163 318.1263,230.0443 C317.9473,229.6723 317.6123,229.3223 317.1213,228.9953 C316.6303,228.6673 315.9233,228.3543 315.0013,228.0563 C314.0783,227.7593 312.8863,227.4473 311.4283,227.1193 C310.0003,226.7923 308.6833,226.4053 307.4783,225.9593 C306.2723,225.5123 305.2383,224.9473 304.3753,224.2623 C303.5113,223.5783 302.8413,222.7153 302.3663,221.6733 C301.8893,220.6313 301.6513,219.3373 301.6513,217.7893 C301.6513,216.3603 301.9423,215.0813 302.5223,213.9493 C303.1023,212.8183 303.8983,211.8583 304.9113,211.0693 C305.9233,210.2813 307.1053,209.6783 308.4603,209.2613 C309.8143,208.8443 311.2653,208.6363 312.8133,208.6363 C315.2533,208.6363 317.3893,209.0713 319.2193,209.9403 C321.0493,210.8103 322.7093,212.0243 324.1973,213.5843 L319.6883,217.9663 C318.6763,216.9253 317.5963,216.1303 316.4523,215.5793 C315.3053,215.0283 314.0183,214.7533 312.5903,214.7533 C311.7563,214.7533 311.0563,214.8353 310.4913,214.9983 C309.9253,215.1613 309.4653,215.3773 309.1073,215.6443 C308.7503,215.9123 308.4973,216.2093 308.3483,216.5363 C308.1993,216.8623 308.1253,217.2043 308.1253,217.5603 C308.1253,218.0653 308.2213,218.4893 308.4163,218.8313 C308.6083,219.1733 308.9433,219.4773 309.4203,219.7453 C309.8953,220.0123 310.5363,220.2643 311.3403,220.5023 C312.1433,220.7403 313.1703,221.0083 314.4203,221.3043 C315.6713,221.6013 316.9133,221.9513 318.1483,222.3523 C319.3823,222.7533 320.4993,223.3103 321.4973,224.0233 C322.4933,224.7363 323.3043,225.6423 323.9293,226.7423 C324.5543,227.8413 324.8673,229.2383 324.8673,230.9303 C324.8673,232.4173 324.6293,233.7693 324.1533,234.9873" id="Fill-91" fill="#0096D9"></path>
            <polygon id="Fill-92" fill="#0096D9" points="331.921 240.379 338.126 240.379 338.126 209.128 331.921 209.128"></polygon>
            <polygon id="Fill-93" fill="#0096D9" points="359.8242 215.2442 359.8242 240.3792 353.6182 240.3792 353.6182 215.2442 344.6442 215.2442 344.6442 209.1282 368.7982 209.1282 368.7982 215.2442"></polygon>
            <path d="M389.8691,228.0127 L389.8691,240.3787 L383.6641,240.3787 L383.6641,228.1467 L371.8331,209.1277 L379.0201,209.1277 L383.4401,216.5387 C383.7071,217.0147 384.0111,217.5427 384.3501,218.1227 C384.6901,218.7037 385.0151,219.2837 385.3261,219.8647 C385.6361,220.4457 385.9241,220.9807 386.1901,221.4717 C386.4561,221.9627 386.6631,222.3577 386.8111,222.6557 C386.9591,222.3577 387.1661,221.9627 387.4311,221.4717 C387.6971,220.9807 387.9851,220.4527 388.2961,219.8867 C388.6061,219.3227 388.9241,218.7487 389.2491,218.1677 C389.5731,217.5877 389.8851,217.0447 390.1811,216.5387 L394.6011,209.1277 L401.7001,209.1277 L389.8691,228.0127 Z" id="Fill-94" fill="#0096D9"></path>
            <path d="M141.2871,263.0586 C140.8331,262.1996 140.2421,261.5316 139.5151,261.0536 C138.7861,260.5766 137.8491,260.3366 136.7041,260.3366 C135.7721,260.3366 134.9371,260.5346 134.1971,260.9276 C133.4571,261.3226 132.8371,261.8716 132.3361,262.5756 C131.8341,263.2796 131.4521,264.1156 131.1891,265.0816 C130.9271,266.0476 130.7961,267.1176 130.7961,268.2866 C130.7961,269.4086 130.9271,270.4526 131.1891,271.4186 C131.4521,272.3856 131.8401,273.2276 132.3531,273.9436 C132.8661,274.6596 133.4931,275.2206 134.2331,275.6256 C134.9731,276.0326 135.8081,276.2356 136.7391,276.2356 C137.8861,276.2356 138.8221,275.9846 139.5511,275.4836 C140.2781,274.9816 140.9761,274.1706 141.6441,273.0476 L145.8701,275.5546 C145.0111,277.3446 143.8231,278.7356 142.3081,279.7256 C140.7911,280.7166 138.8881,281.2116 136.5971,281.2116 C134.9491,281.2116 133.4571,280.9076 132.1211,280.2986 C130.7831,279.6906 129.6321,278.8256 128.6651,277.7036 C127.6981,276.5806 126.9521,275.2266 126.4281,273.6386 C125.9021,272.0516 125.6401,270.2676 125.6401,268.2866 C125.6401,266.3766 125.9141,264.6276 126.4641,263.0406 C127.0131,261.4536 127.7761,260.0926 128.7551,258.9586 C129.7331,257.8256 130.9031,256.9426 132.2641,256.3096 C133.6251,255.6766 135.1281,255.3606 136.7751,255.3606 C137.9441,255.3606 139.0071,255.4976 139.9621,255.7726 C140.9171,256.0466 141.7701,256.4286 142.5221,256.9176 C143.2741,257.4076 143.9311,257.9926 144.4911,258.6716 C145.0521,259.3526 145.5351,260.0986 145.9411,260.9106 L141.2871,263.0586 Z" id="Fill-95" fill="#0096D9"></path>
            <path d="M161.4805,280.8184 L161.4805,270.6494 C161.4805,268.9784 161.2085,267.8334 160.6625,267.2124 C160.1155,266.5914 159.3325,266.2814 158.3115,266.2814 C157.2915,266.2814 156.5015,266.5854 155.9435,267.1944 C155.3855,267.8024 155.1075,268.9194 155.1075,270.5424 L155.1075,280.8184 L150.1305,280.8184 L150.1305,257.1864 L155.1075,254.7154 L155.1075,263.2734 C155.5375,262.8204 156.1275,262.4314 156.8795,262.1094 C157.6315,261.7874 158.5085,261.6264 159.5115,261.6264 C161.8985,261.6264 163.6525,262.3964 164.7755,263.9354 C165.8965,265.4754 166.4585,267.5704 166.4585,270.2194 L166.4585,280.8184 L161.4805,280.8184 Z" id="Fill-96" fill="#0096D9"></path>
            <path d="M181.3896,272.9405 C180.9616,272.6785 180.5056,272.4815 180.0186,272.3495 C179.5326,272.2185 178.8496,272.1535 177.9716,272.1535 C177.0456,272.1535 176.3396,272.3565 175.8526,272.7615 C175.3666,273.1685 175.1226,273.7525 175.1226,274.5165 C175.1226,275.1845 175.3366,275.7695 175.7636,276.2705 C176.1916,276.7725 176.9266,277.0225 177.9716,277.0225 C178.7786,277.0225 179.4846,276.8495 180.0896,276.5035 C180.6956,276.1585 181.1276,275.7575 181.3896,275.3035 L181.3896,272.9405 Z M181.3896,280.8185 L181.3896,279.5645 C180.9356,280.0435 180.3386,280.4365 179.5986,280.7465 C178.8596,281.0565 178.0466,281.2115 177.1636,281.2115 C176.2816,281.2115 175.4216,281.0745 174.5856,280.7995 C173.7496,280.5265 173.0046,280.1145 172.3486,279.5645 C171.6916,279.0155 171.1606,278.3245 170.7546,277.4885 C170.3486,276.6535 170.1466,275.6625 170.1466,274.5165 C170.1466,273.4905 170.3436,272.5835 170.7376,271.7945 C171.1306,271.0075 171.6736,270.3575 172.3666,269.8435 C173.0586,269.3315 173.8646,268.9435 174.7836,268.6795 C175.7026,268.4185 176.6996,268.2865 177.7736,268.2865 C178.6326,268.2865 179.3486,268.3645 179.9206,268.5185 C180.4936,268.6745 180.9836,268.8475 181.3896,269.0385 L181.3896,268.1075 C181.3896,267.4395 181.1676,266.8725 180.7266,266.4065 C180.2856,265.9405 179.6116,265.7085 178.7036,265.7085 C178.1306,265.7085 177.6236,265.7325 177.1826,265.7795 C176.7406,265.8285 176.3236,265.8995 175.9286,265.9945 C175.5356,266.0895 175.1466,266.2155 174.7656,266.3705 C174.3826,266.5265 173.9776,266.7225 173.5476,266.9615 L171.6506,263.5245 C172.1996,263.2135 172.7306,262.9395 173.2436,262.7005 C173.7566,262.4615 174.2936,262.2655 174.8546,262.1095 C175.4146,261.9555 176.0056,261.8365 176.6266,261.7525 C177.2476,261.6685 177.9396,261.6265 178.7036,261.6265 C179.8496,261.6265 180.8906,261.7695 181.8266,262.0555 C182.7606,262.3425 183.5656,262.7665 184.2386,263.3275 C184.9116,263.8885 185.4346,264.5805 185.8076,265.4035 C186.1796,266.2275 186.3666,267.1645 186.3666,268.2145 L186.3666,280.8185 L181.3896,280.8185 Z" id="Fill-97" fill="#0096D9"></path>
            <path d="M201.9766,267.7852 C201.5706,267.4172 201.1286,267.1162 200.6526,266.8822 C200.1746,266.6482 199.6616,266.5312 199.1126,266.5312 C198.6346,266.5312 198.1996,266.5922 197.8056,266.7112 C197.4126,266.8312 197.0776,267.0462 196.8026,267.3572 C196.5286,267.6692 196.3136,268.0882 196.1586,268.6142 C196.0026,269.1402 195.9256,269.8102 195.9256,270.6242 L195.9256,280.8182 L190.9496,280.8182 L190.9496,262.0202 L195.9256,262.0202 L195.9256,263.2622 C196.3556,262.8112 196.8866,262.4272 197.5196,262.1062 C198.1516,261.7862 198.9096,261.6262 199.7926,261.6262 C200.6036,261.6262 201.3016,261.7642 201.8876,262.0382 C202.4716,262.3122 202.9316,262.6172 203.2656,262.9512 L201.9766,267.7852 Z" id="Fill-98" fill="#0096D9"></path>
            <path d="M215.7266,272.9405 C215.2986,272.6785 214.8426,272.4815 214.3556,272.3495 C213.8696,272.2185 213.1866,272.1535 212.3086,272.1535 C211.3826,272.1535 210.6766,272.3565 210.1896,272.7615 C209.7036,273.1685 209.4596,273.7525 209.4596,274.5165 C209.4596,275.1845 209.6736,275.7695 210.1006,276.2705 C210.5286,276.7725 211.2636,277.0225 212.3086,277.0225 C213.1156,277.0225 213.8216,276.8495 214.4266,276.5035 C215.0326,276.1585 215.4646,275.7575 215.7266,275.3035 L215.7266,272.9405 Z M215.7266,280.8185 L215.7266,279.5645 C215.2726,280.0435 214.6756,280.4365 213.9356,280.7465 C213.1966,281.0565 212.3836,281.2115 211.5006,281.2115 C210.6186,281.2115 209.7586,281.0745 208.9226,280.7995 C208.0866,280.5265 207.3416,280.1145 206.6856,279.5645 C206.0286,279.0155 205.4976,278.3245 205.0916,277.4885 C204.6856,276.6535 204.4836,275.6625 204.4836,274.5165 C204.4836,273.4905 204.6806,272.5835 205.0746,271.7945 C205.4676,271.0075 206.0106,270.3575 206.7036,269.8435 C207.3956,269.3315 208.2016,268.9435 209.1206,268.6795 C210.0396,268.4185 211.0366,268.2865 212.1106,268.2865 C212.9696,268.2865 213.6856,268.3645 214.2576,268.5185 C214.8306,268.6745 215.3206,268.8475 215.7266,269.0385 L215.7266,268.1075 C215.7266,267.4395 215.5046,266.8725 215.0636,266.4065 C214.6226,265.9405 213.9486,265.7085 213.0406,265.7085 C212.4676,265.7085 211.9606,265.7325 211.5196,265.7795 C211.0776,265.8285 210.6606,265.8995 210.2656,265.9945 C209.8726,266.0895 209.4836,266.2155 209.1026,266.3705 C208.7196,266.5265 208.3146,266.7225 207.8846,266.9615 L205.9876,263.5245 C206.5366,263.2135 207.0676,262.9395 207.5806,262.7005 C208.0936,262.4615 208.6306,262.2655 209.1916,262.1095 C209.7516,261.9555 210.3426,261.8365 210.9636,261.7525 C211.5846,261.6685 212.2766,261.6265 213.0406,261.6265 C214.1866,261.6265 215.2276,261.7695 216.1636,262.0555 C217.0976,262.3425 217.9026,262.7665 218.5756,263.3275 C219.2486,263.8885 219.7716,264.5805 220.1446,265.4035 C220.5166,266.2275 220.7036,267.1645 220.7036,268.2145 L220.7036,280.8185 L215.7266,280.8185 Z" id="Fill-99" fill="#0096D9"></path>
            <path d="M239.3408,278.7061 C238.8268,279.2071 238.2668,279.6481 237.6568,280.0301 C237.0488,280.4121 236.3678,280.7051 235.6158,280.9071 C234.8638,281.1101 234.0238,281.2121 233.0928,281.2121 C231.8748,281.2121 230.7308,280.9731 229.6588,280.4961 C228.5878,280.0181 227.6548,279.3501 226.8618,278.4911 C226.0678,277.6321 225.4448,276.6001 224.9948,275.3931 C224.5448,274.1881 224.3198,272.8691 224.3198,271.4371 C224.3198,270.0051 224.5448,268.6861 224.9948,267.4801 C225.4448,266.2751 226.0678,265.2371 226.8618,264.3651 C227.6548,263.4941 228.5998,262.8201 229.6948,262.3431 C230.7898,261.8651 231.9938,261.6261 233.3068,261.6261 C235.0978,261.6261 236.5888,262.0151 237.7828,262.7901 C238.9768,263.5661 239.9668,264.5621 240.7548,265.7791 L237.4958,269.0741 C236.9468,268.2861 236.3448,267.6421 235.6888,267.1411 C235.0308,266.6391 234.2018,266.3891 233.1998,266.3891 C232.0058,266.3891 231.0568,266.8421 230.3538,267.7491 C229.6488,268.6561 229.2968,269.8861 229.2968,271.4371 C229.2968,272.9401 229.6488,274.1521 230.3538,275.0711 C231.0568,275.9901 232.0058,276.4501 233.1998,276.4501 C234.1778,276.4501 235.0018,276.2411 235.6698,275.8231 C236.3378,275.4061 236.9948,274.8151 237.6398,274.0511 L240.7898,277.0221 C240.3368,277.6441 239.8538,278.2041 239.3408,278.7061" id="Fill-100" fill="#0096D9"></path>
            <path d="M255.041,280.0664 C254.635,280.4004 254.086,280.6744 253.394,280.8894 C252.701,281.1044 251.974,281.2124 251.21,281.2124 C250.44,281.2124 249.743,281.0744 249.118,280.7994 C248.493,280.5264 247.965,280.1374 247.531,279.6364 C247.099,279.1344 246.762,278.5394 246.521,277.8464 C246.281,277.1544 246.161,276.3904 246.161,275.5544 L246.161,266.6744 L243.011,266.6744 L243.011,262.0204 L246.161,262.0204 L246.161,257.1864 L251.139,254.7154 L251.139,262.0204 L255.649,262.0204 L255.649,266.6744 L251.139,266.6744 L251.139,274.2294 C251.139,275.1374 251.293,275.7404 251.603,276.0384 C251.914,276.3374 252.367,276.4854 252.964,276.4854 C253.418,276.4854 253.842,276.3784 254.235,276.1634 C254.629,275.9484 255.136,275.5794 255.757,275.0534 L255.041,280.0664 Z" id="Fill-101" fill="#0096D9"></path>
            <path d="M269.8281,268.0537 C269.6841,267.6587 269.4751,267.3017 269.2011,266.9797 C268.9271,266.6577 268.5861,266.4007 268.1811,266.2087 C267.7741,266.0187 267.2981,265.9227 266.7491,265.9227 C265.8411,265.9227 265.1251,266.2447 264.6001,266.8897 C264.0751,267.5337 263.7651,268.3337 263.6691,269.2887 L270.1141,269.2887 C270.0661,268.8597 269.9711,268.4477 269.8281,268.0537 M274.8941,272.3497 C274.8821,272.6007 274.8641,272.8217 274.8411,273.0127 L263.5981,273.0127 C263.6451,273.6577 263.7881,274.2057 264.0271,274.6587 C264.2661,275.1137 264.5641,275.4777 264.9231,275.7517 C265.2801,276.0267 265.6801,276.2297 266.1221,276.3607 C266.5631,276.4917 267.0111,276.5577 267.4651,276.5577 C268.1571,276.5577 268.7771,276.4387 269.3261,276.1997 C269.8751,275.9607 270.3291,275.6387 270.6871,275.2327 L274.1961,278.1687 C273.4321,279.1477 272.4351,279.8997 271.2061,280.4237 C269.9761,280.9497 268.7291,281.2117 267.4651,281.2117 C266.1041,281.2117 264.8811,280.9797 263.7951,280.5137 C262.7081,280.0477 261.7831,279.3917 261.0191,278.5447 C260.2561,277.6977 259.6651,276.6707 259.2471,275.4647 C258.8291,274.2597 258.6211,272.9167 258.6211,271.4377 C258.6211,270.0047 258.8361,268.6867 259.2651,267.4807 C259.6951,266.2757 260.2861,265.2377 261.0371,264.3657 C261.7891,263.4937 262.6721,262.8207 263.6871,262.3427 C264.7011,261.8657 265.8061,261.6257 266.9991,261.6257 C268.2401,261.6257 269.3561,261.8827 270.3471,262.3967 C271.3371,262.9097 272.1671,263.6137 272.8361,264.5087 C273.5041,265.4037 274.0171,266.4487 274.3751,267.6417 C274.7331,268.8357 274.9121,270.1007 274.9121,271.4377 C274.9121,271.7947 274.9061,272.0997 274.8941,272.3497" id="Fill-102" fill="#0096D9"></path>
            <path d="M289.8789,267.7852 C289.4729,267.4172 289.0309,267.1162 288.5549,266.8822 C288.0769,266.6482 287.5639,266.5312 287.0149,266.5312 C286.5369,266.5312 286.1019,266.5922 285.7079,266.7112 C285.3149,266.8312 284.9799,267.0462 284.7049,267.3572 C284.4309,267.6692 284.2159,268.0882 284.0609,268.6142 C283.9049,269.1402 283.8279,269.8102 283.8279,270.6242 L283.8279,280.8182 L278.8519,280.8182 L278.8519,262.0202 L283.8279,262.0202 L283.8279,263.2622 C284.2579,262.8112 284.7889,262.4272 285.4219,262.1062 C286.0539,261.7862 286.8119,261.6262 287.6949,261.6262 C288.5059,261.6262 289.2039,261.7642 289.7899,262.0382 C290.3739,262.3122 290.8339,262.6172 291.1679,262.9512 L289.8789,267.7852 Z" id="Fill-103" fill="#0096D9"></path>
            <path d="M316.9482,269.5752 L310.2882,269.5752 L310.2882,276.0552 L316.9482,276.0552 C318.1652,276.0552 319.0662,275.7632 319.6512,275.1792 C320.2352,274.5942 320.5282,273.8002 320.5282,272.7982 C320.5282,270.6492 319.3352,269.5752 316.9482,269.5752 M319.0242,261.0122 C318.5472,260.6102 317.7592,260.4092 316.6612,260.4092 L310.2882,260.4092 L310.2882,265.1362 L316.9122,265.1362 C317.9622,265.1362 318.6962,264.9172 319.1142,264.4772 C319.5312,264.0402 319.7402,263.4762 319.7402,262.7902 C319.7402,262.0092 319.5022,261.4162 319.0242,261.0122 M325.0402,276.2172 C324.6102,277.2322 324.0072,278.0792 323.2312,278.7602 C322.4562,279.4392 321.5182,279.9532 320.4212,280.2992 C319.3232,280.6452 318.1052,280.8182 316.7682,280.8182 L305.3832,280.8182 L305.3832,255.7542 L316.8762,255.7542 C319.3112,255.7542 321.2442,256.3212 322.6772,257.4552 C324.1092,258.5892 324.8252,260.2292 324.8252,262.3782 C324.8252,263.4522 324.5932,264.4072 324.1272,265.2422 C323.6612,266.0782 323.0102,266.7462 322.1762,267.2482 C323.1772,267.7012 324.0132,268.3822 324.6812,269.2892 C325.3492,270.1962 325.6842,271.3422 325.6842,272.7252 C325.6842,274.0392 325.4692,275.2032 325.0402,276.2172" id="Fill-104" fill="#0096D9"></path>
            <path d="M340.7939,280.8184 L340.7939,279.5644 C340.3639,280.0184 339.7729,280.4064 339.0219,280.7284 C338.2699,281.0504 337.3929,281.2124 336.3899,281.2124 C333.9789,281.2124 332.2189,280.4424 331.1079,278.9024 C329.9989,277.3634 329.4429,275.2684 329.4429,272.6184 L329.4429,262.0204 L334.4209,262.0204 L334.4209,272.1884 C334.4209,273.0244 334.4909,273.7224 334.6339,274.2834 C334.7759,274.8444 334.9789,275.2924 335.2389,275.6264 C335.4999,275.9614 335.8329,276.1994 336.2359,276.3424 C336.6399,276.4854 337.0909,276.5574 337.5899,276.5574 C338.6089,276.5574 339.3989,276.2534 339.9569,275.6444 C340.5149,275.0354 340.7939,273.9204 340.7939,272.2964 L340.7939,262.0204 L345.7709,262.0204 L345.7709,280.8184 L340.7939,280.8184 Z" id="Fill-105" fill="#0096D9"></path>
            <path d="M350.712,280.819 L355.689,280.819 L355.689,262.021 L350.712,262.021 L350.712,280.819 Z M355.17,259.639 C354.608,260.2 353.946,260.48 353.183,260.48 C352.418,260.48 351.756,260.2 351.195,259.639 C350.634,259.078 350.354,258.416 350.354,257.652 C350.354,256.889 350.634,256.226 351.195,255.665 C351.756,255.105 352.418,254.823 353.183,254.823 C353.946,254.823 354.608,255.105 355.17,255.665 C355.73,256.226 356.011,256.889 356.011,257.652 C356.011,258.416 355.73,259.078 355.17,259.639 L355.17,259.639 Z" id="Fill-106" fill="#0096D9"></path>
            <polygon id="Fill-107" fill="#0096D9" points="360.8096 280.8184 360.8096 257.1864 365.7866 254.7154 365.7866 280.8184"></polygon>
            <path d="M381.0391,267.8926 C380.2471,266.8186 379.1301,266.2816 377.6901,266.2816 C375.7221,266.2816 374.7371,267.8806 374.7371,271.0796 C374.7371,273.0126 375.0311,274.4096 375.6191,275.2686 C376.2081,276.1276 376.9931,276.5576 377.9781,276.5576 C378.7461,276.5576 379.3581,276.4136 379.8151,276.1276 C380.2701,275.8406 380.6791,275.4596 381.0391,274.9816 L381.0391,267.8926 Z M381.0391,280.8186 L381.0391,279.6366 C380.5611,280.0426 380.0071,280.4066 379.3741,280.7286 C378.7411,281.0506 377.9721,281.2116 377.0641,281.2116 C376.0621,281.2116 375.1191,281.0206 374.2361,280.6386 C373.3521,280.2576 372.5771,279.6546 371.9081,278.8306 C371.2401,278.0076 370.7151,276.9686 370.3331,275.7156 C369.9511,274.4626 369.7611,272.9536 369.7611,271.1866 C369.7611,269.7786 369.9221,268.4896 370.2441,267.3196 C370.5661,266.1506 371.0371,265.1416 371.6581,264.2936 C372.2781,263.4476 373.0421,262.7896 373.9491,262.3246 C374.8561,261.8596 375.8941,261.6256 377.0641,261.6256 C377.9001,261.6256 378.6581,261.7696 379.3381,262.0556 C380.0181,262.3426 380.5851,262.6886 381.0391,263.0946 L381.0391,257.1866 L386.0161,254.7156 L386.0161,280.8186 L381.0391,280.8186 Z" id="Fill-108" fill="#0096D9"></path>
            <path d="M391.029,280.819 L396.006,280.819 L396.006,262.021 L391.029,262.021 L391.029,280.819 Z M395.487,259.639 C394.926,260.2 394.264,260.48 393.5,260.48 C392.735,260.48 392.073,260.2 391.513,259.639 C390.951,259.078 390.671,258.416 390.671,257.652 C390.671,256.889 390.951,256.226 391.513,255.665 C392.073,255.105 392.735,254.823 393.5,254.823 C394.264,254.823 394.926,255.105 395.487,255.665 C396.048,256.226 396.328,256.889 396.328,257.652 C396.328,258.416 396.048,259.078 395.487,259.639 L395.487,259.639 Z" id="Fill-109" fill="#0096D9"></path>
            <path d="M412.2969,280.8184 L412.2969,270.6494 C412.2969,268.9784 412.0249,267.8334 411.4789,267.2124 C410.9319,266.5914 410.1489,266.2814 409.1279,266.2814 C408.1079,266.2814 407.3179,266.5854 406.7599,267.1944 C406.2019,267.8024 405.9239,268.9194 405.9239,270.5424 L405.9239,280.8184 L400.9469,280.8184 L400.9469,262.0204 L405.9239,262.0204 L405.9239,263.2734 C406.3539,262.8204 406.9439,262.4314 407.6959,262.1094 C408.4479,261.7874 409.3249,261.6264 410.3279,261.6264 C412.7149,261.6264 414.4689,262.3964 415.5919,263.9354 C416.7129,265.4754 417.2749,267.5704 417.2749,270.2194 L417.2749,280.8184 L412.2969,280.8184 Z" id="Fill-110" fill="#0096D9"></path>
            <path d="M432.1699,267.8926 C431.3779,266.8186 430.2609,266.2816 428.8209,266.2816 C426.8529,266.2816 425.8679,267.8806 425.8679,271.0796 C425.8679,273.0126 426.1619,274.4096 426.7499,275.2686 C427.3389,276.1276 428.1239,276.5576 429.1089,276.5576 C429.8769,276.5576 430.4889,276.4136 430.9459,276.1276 C431.4009,275.8406 431.8099,275.4596 432.1699,274.9816 L432.1699,267.8926 Z M436.8059,281.7316 C436.5779,282.9136 436.1659,283.9146 435.5669,284.7396 C434.9699,285.5626 434.1449,286.2246 433.0919,286.7256 C432.0389,287.2276 430.6879,287.5616 429.0369,287.7286 L427.2779,284.0046 C428.2309,283.8616 429.0219,283.6946 429.6529,283.5036 C430.2829,283.3126 430.7889,283.0496 431.1699,282.7156 C431.5509,282.3806 431.8129,281.9636 431.9559,281.4626 C432.0989,280.9606 432.1699,280.3526 432.1699,279.6366 C431.6919,280.0426 431.1379,280.4066 430.5049,280.7286 C429.8719,281.0506 429.1029,281.2116 428.1949,281.2116 C427.1929,281.2116 426.2499,281.0206 425.3669,280.6386 C424.4829,280.2576 423.7079,279.6546 423.0389,278.8306 C422.3709,278.0076 421.8459,276.9686 421.4639,275.7156 C421.0819,274.4626 420.8919,272.9536 420.8919,271.1866 C420.8919,269.7786 421.0529,268.4896 421.3749,267.3196 C421.6969,266.1506 422.1679,265.1416 422.7889,264.2936 C423.4089,263.4476 424.1729,262.7896 425.0799,262.3246 C425.9869,261.8596 427.0249,261.6256 428.1949,261.6256 C429.0309,261.6256 429.7889,261.7696 430.4689,262.0556 C431.1489,262.3426 431.7159,262.6886 432.1699,263.0946 L432.1699,262.0206 L437.1469,262.0206 L437.1469,277.6316 C437.1469,279.1836 437.0329,280.5496 436.8059,281.7316 L436.8059,281.7316 Z" id="Fill-111" fill="#0096D9"></path>
            <path d="M140.3496,303.0049 C139.1756,301.7339 137.2596,301.0989 134.6006,301.0989 L131.9416,301.0989 L131.9416,316.3519 L134.4206,316.3519 C135.7386,316.3519 136.8816,316.1679 137.8526,315.7999 C138.8226,315.4319 139.6186,314.9139 140.2426,314.2489 C140.8646,313.5839 141.3316,312.7819 141.6436,311.8439 C141.9536,310.9049 142.1106,309.8659 142.1106,308.7259 C142.1106,306.1829 141.5236,304.2759 140.3496,303.0049 M146.1746,314.4009 C145.4466,315.9879 144.4796,317.2889 143.2746,318.3029 C142.0686,319.3179 140.6966,320.0639 139.1566,320.5409 C137.6176,321.0189 136.0466,321.2569 134.4486,321.2569 L126.9646,321.2569 L126.9646,296.1929 L134.8056,296.1929 C136.5966,296.1929 138.2486,296.4139 139.7656,296.8559 C141.2816,297.2979 142.5936,298.0199 143.7036,299.0219 C144.8136,300.0249 145.6846,301.3189 146.3176,302.9059 C146.9506,304.4939 147.2666,306.4339 147.2666,308.7259 C147.2666,310.9219 146.9026,312.8139 146.1746,314.4009" id="Fill-112" fill="#0096D9"></path>
            <path d="M161.6963,308.4922 C161.5523,308.0982 161.3433,307.7402 161.0693,307.4182 C160.7953,307.0962 160.4543,306.8402 160.0493,306.6482 C159.6423,306.4582 159.1663,306.3622 158.6173,306.3622 C157.7093,306.3622 156.9933,306.6842 156.4683,307.3292 C155.9433,307.9732 155.6333,308.7732 155.5373,309.7272 L161.9823,309.7272 C161.9343,309.2982 161.8393,308.8872 161.6963,308.4922 M166.7623,312.7892 C166.7503,313.0402 166.7323,313.2612 166.7093,313.4512 L155.4663,313.4512 C155.5133,314.0962 155.6563,314.6452 155.8953,315.0982 C156.1343,315.5522 156.4323,315.9162 156.7913,316.1902 C157.1483,316.4652 157.5483,316.6682 157.9903,316.7992 C158.4313,316.9302 158.8793,316.9962 159.3333,316.9962 C160.0253,316.9962 160.6453,316.8772 161.1943,316.6382 C161.7433,316.3992 162.1973,316.0772 162.5553,315.6722 L166.0643,318.6072 C165.3003,319.5872 164.3033,320.3392 163.0743,320.8632 C161.8443,321.3882 160.5973,321.6512 159.3333,321.6512 C157.9723,321.6512 156.7493,321.4182 155.6633,320.9532 C154.5763,320.4872 153.6513,319.8312 152.8873,318.9832 C152.1243,318.1372 151.5333,317.1092 151.1153,315.9042 C150.6973,314.6992 150.4893,313.3562 150.4893,311.8762 C150.4893,310.4432 150.7043,309.1252 151.1333,307.9202 C151.5633,306.7152 152.1543,305.6762 152.9053,304.8042 C153.6573,303.9332 154.5403,303.2592 155.5553,302.7812 C156.5693,302.3042 157.6743,302.0652 158.8673,302.0652 C160.1083,302.0652 161.2243,302.3222 162.2153,302.8352 C163.2053,303.3482 164.0353,304.0532 164.7043,304.9472 C165.3723,305.8432 165.8853,306.8882 166.2433,308.0812 C166.6013,309.2742 166.7803,310.5392 166.7803,311.8762 C166.7803,312.2342 166.7743,312.5382 166.7623,312.7892" id="Fill-113" fill="#0096D9"></path>
            <path d="M180.1719,321.2569 L175.0869,321.2569 L168.3199,302.4589 L173.7629,302.4589 L176.5199,311.1599 C176.7579,311.8759 176.9849,312.6279 177.1999,313.4159 C177.4149,314.2029 177.5809,314.8239 177.7009,315.2779 C177.8199,314.8009 177.9869,314.1799 178.2019,313.4159 C178.4169,312.6529 178.6439,311.9009 178.8829,311.1599 L181.6399,302.4589 L186.9389,302.4589 L180.1719,321.2569 Z" id="Fill-114" fill="#0096D9"></path>
            <path d="M199.8643,308.4922 C199.7203,308.0982 199.5113,307.7402 199.2373,307.4182 C198.9633,307.0962 198.6223,306.8402 198.2173,306.6482 C197.8103,306.4582 197.3343,306.3622 196.7853,306.3622 C195.8773,306.3622 195.1613,306.6842 194.6363,307.3292 C194.1113,307.9732 193.8013,308.7732 193.7053,309.7272 L200.1503,309.7272 C200.1023,309.2982 200.0073,308.8872 199.8643,308.4922 M204.9303,312.7892 C204.9183,313.0402 204.9003,313.2612 204.8773,313.4512 L193.6343,313.4512 C193.6813,314.0962 193.8243,314.6452 194.0633,315.0982 C194.3023,315.5522 194.6003,315.9162 194.9593,316.1902 C195.3163,316.4652 195.7163,316.6682 196.1583,316.7992 C196.5993,316.9302 197.0473,316.9962 197.5013,316.9962 C198.1933,316.9962 198.8133,316.8772 199.3623,316.6382 C199.9113,316.3992 200.3653,316.0772 200.7233,315.6722 L204.2323,318.6072 C203.4683,319.5872 202.4713,320.3392 201.2423,320.8632 C200.0123,321.3882 198.7653,321.6512 197.5013,321.6512 C196.1403,321.6512 194.9173,321.4182 193.8313,320.9532 C192.7443,320.4872 191.8193,319.8312 191.0553,318.9832 C190.2923,318.1372 189.7013,317.1092 189.2833,315.9042 C188.8653,314.6992 188.6573,313.3562 188.6573,311.8762 C188.6573,310.4432 188.8723,309.1252 189.3013,307.9202 C189.7313,306.7152 190.3223,305.6762 191.0733,304.8042 C191.8253,303.9332 192.7083,303.2592 193.7233,302.7812 C194.7373,302.3042 195.8423,302.0652 197.0353,302.0652 C198.2763,302.0652 199.3923,302.3222 200.3833,302.8352 C201.3733,303.3482 202.2033,304.0532 202.8723,304.9472 C203.5403,305.8432 204.0533,306.8882 204.4113,308.0812 C204.7693,309.2742 204.9483,310.5392 204.9483,311.8762 C204.9483,312.2342 204.9423,312.5382 204.9303,312.7892" id="Fill-115" fill="#0096D9"></path>
            <polygon id="Fill-116" fill="#0096D9" points="209.0664 321.2569 209.0664 297.6249 214.0434 295.1549 214.0434 321.2569"></polygon>
            <path d="M229.1797,308.2774 C228.6007,307.3104 227.7077,306.8274 226.5027,306.8274 C225.2967,306.8274 224.4107,307.3054 223.8437,308.2594 C223.2777,309.2144 222.9937,310.4204 222.9937,311.8764 C222.9937,313.3324 223.2777,314.5324 223.8437,315.4744 C224.4107,316.4184 225.2967,316.8884 226.5027,316.8884 C227.1057,316.8884 227.6297,316.7524 228.0757,316.4764 C228.5227,316.2034 228.8897,315.8334 229.1797,315.3674 C229.4687,314.9014 229.6857,314.3644 229.8307,313.7564 C229.9757,313.1474 230.0477,312.5204 230.0477,311.8764 C230.0477,310.4434 229.7577,309.2444 229.1797,308.2774 M234.3797,315.8334 C233.9507,317.0384 233.3607,318.0704 232.6087,318.9294 C231.8567,319.7894 230.9547,320.4584 229.9047,320.9344 C228.8537,321.4124 227.7207,321.6514 226.5027,321.6514 C225.2857,321.6514 224.1587,321.4124 223.1187,320.9344 C222.0807,320.4584 221.1857,319.7894 220.4337,318.9294 C219.6827,318.0704 219.0917,317.0384 218.6617,315.8334 C218.2327,314.6284 218.0177,313.3084 218.0177,311.8764 C218.0177,310.4434 218.2327,309.1254 218.6617,307.9204 C219.0917,306.7154 219.6827,305.6754 220.4337,304.8044 C221.1857,303.9334 222.0807,303.2584 223.1187,302.7814 C224.1587,302.3034 225.2857,302.0654 226.5027,302.0654 C227.7207,302.0654 228.8537,302.3034 229.9047,302.7814 C230.9547,303.2584 231.8567,303.9334 232.6087,304.8044 C233.3607,305.6754 233.9507,306.7154 234.3797,307.9204 C234.8097,309.1254 235.0247,310.4434 235.0247,311.8764 C235.0247,313.3084 234.8097,314.6284 234.3797,315.8334" id="Fill-117" fill="#0096D9"></path>
            <path d="M249.2217,308.0088 C248.6367,307.1498 247.8547,306.7198 246.8757,306.7198 C246.1127,306.7198 245.5037,306.8628 245.0507,307.1498 C244.5967,307.4368 244.1917,307.8188 243.8327,308.2958 L243.8327,315.3848 C244.6207,316.4588 245.7307,316.9958 247.1627,316.9958 C249.1197,316.9958 250.0987,315.3978 250.0987,312.1978 C250.0987,310.2648 249.8067,308.8678 249.2217,308.0088 M254.5927,315.9578 C254.2707,317.1278 253.7987,318.1368 253.1787,318.9838 C252.5577,319.8308 251.7937,320.4878 250.8867,320.9528 C249.9797,321.4178 248.9407,321.6518 247.7717,321.6518 C246.9357,321.6518 246.1787,321.5078 245.4977,321.2218 C244.8177,320.9348 244.2497,320.5888 243.7967,320.1828 L243.8327,325.6968 L238.8567,328.1678 L238.8567,302.4588 L243.8327,302.4588 L243.8327,303.6408 C244.3087,303.2358 244.8627,302.8708 245.4927,302.5488 C246.1227,302.2268 246.8907,302.0658 247.7947,302.0658 C248.7937,302.0658 249.7337,302.2568 250.6147,302.6378 C251.4947,303.0208 252.2677,303.6228 252.9347,304.4458 C253.6007,305.2698 254.1237,306.3148 254.5047,307.5788 C254.8847,308.8448 255.0757,310.3488 255.0757,312.0908 C255.0757,313.4998 254.9147,314.7878 254.5927,315.9578" id="Fill-118" fill="#0096D9"></path>
            <path d="M281.0352,321.2569 L281.0352,311.0879 C281.0352,309.4179 280.7902,308.2719 280.3022,307.6519 C279.8112,307.0299 279.0542,306.7199 278.0272,306.7199 C277.0012,306.7199 276.2372,307.0249 275.7362,307.6329 C275.2342,308.2419 274.9842,309.3579 274.9842,310.9809 L274.9842,321.2569 L270.0072,321.2569 L270.0072,311.0879 C270.0072,309.4179 269.7622,308.2719 269.2732,307.6519 C268.7832,307.0299 268.0252,306.7199 266.9992,306.7199 C265.9722,306.7199 265.2092,307.0249 264.7082,307.6329 C264.2072,308.2419 263.9562,309.3579 263.9562,310.9809 L263.9562,321.2569 L258.9792,321.2569 L258.9792,302.4589 L263.9562,302.4589 L263.9562,303.7119 C264.3872,303.2589 264.9312,302.8709 265.5902,302.5489 C266.2492,302.2269 267.0812,302.0659 268.0872,302.0659 C269.2842,302.0659 270.2782,302.2499 271.0682,302.6199 C271.8582,302.9899 272.6002,303.6049 273.2962,304.4639 C273.9422,303.7959 274.7152,303.2289 275.6122,302.7639 C276.5112,302.2979 277.7382,302.0659 279.2952,302.0659 C280.4922,302.0659 281.5152,302.2619 282.3652,302.6559 C283.2162,303.0499 283.9102,303.6229 284.4502,304.3749 C284.9882,305.1269 285.3842,306.0339 285.6352,307.0959 C285.8872,308.1579 286.0132,309.3459 286.0132,310.6579 L286.0132,321.2569 L281.0352,321.2569 Z" id="Fill-119" fill="#0096D9"></path>
            <path d="M300.7637,308.4922 C300.6197,308.0982 300.4107,307.7402 300.1367,307.4182 C299.8627,307.0962 299.5217,306.8402 299.1167,306.6482 C298.7097,306.4582 298.2337,306.3622 297.6847,306.3622 C296.7767,306.3622 296.0607,306.6842 295.5357,307.3292 C295.0107,307.9732 294.7007,308.7732 294.6047,309.7272 L301.0497,309.7272 C301.0017,309.2982 300.9067,308.8872 300.7637,308.4922 M305.8297,312.7892 C305.8177,313.0402 305.7997,313.2612 305.7767,313.4512 L294.5337,313.4512 C294.5807,314.0962 294.7237,314.6452 294.9627,315.0982 C295.2017,315.5522 295.4997,315.9162 295.8587,316.1902 C296.2157,316.4652 296.6157,316.6682 297.0577,316.7992 C297.4987,316.9302 297.9467,316.9962 298.4007,316.9962 C299.0927,316.9962 299.7127,316.8772 300.2617,316.6382 C300.8107,316.3992 301.2647,316.0772 301.6227,315.6722 L305.1317,318.6072 C304.3677,319.5872 303.3707,320.3392 302.1417,320.8632 C300.9117,321.3882 299.6647,321.6512 298.4007,321.6512 C297.0397,321.6512 295.8167,321.4182 294.7307,320.9532 C293.6437,320.4872 292.7187,319.8312 291.9547,318.9832 C291.1917,318.1372 290.6007,317.1092 290.1827,315.9042 C289.7647,314.6992 289.5567,313.3562 289.5567,311.8762 C289.5567,310.4432 289.7717,309.1252 290.2007,307.9202 C290.6307,306.7152 291.2217,305.6762 291.9727,304.8042 C292.7247,303.9332 293.6077,303.2592 294.6227,302.7812 C295.6367,302.3042 296.7417,302.0652 297.9347,302.0652 C299.1757,302.0652 300.2917,302.3222 301.2827,302.8352 C302.2727,303.3482 303.1027,304.0532 303.7717,304.9472 C304.4397,305.8432 304.9527,306.8882 305.3107,308.0812 C305.6687,309.2742 305.8477,310.5392 305.8477,311.8762 C305.8477,312.2342 305.8417,312.5382 305.8297,312.7892" id="Fill-120" fill="#0096D9"></path>
            <path d="M321.1367,321.2569 L321.1367,311.0879 C321.1367,309.4179 320.8647,308.2719 320.3187,307.6519 C319.7717,307.0299 318.9887,306.7199 317.9677,306.7199 C316.9477,306.7199 316.1577,307.0249 315.5997,307.6329 C315.0417,308.2419 314.7637,309.3579 314.7637,310.9809 L314.7637,321.2569 L309.7867,321.2569 L309.7867,302.4589 L314.7637,302.4589 L314.7637,303.7119 C315.1937,303.2589 315.7837,302.8709 316.5357,302.5489 C317.2877,302.2269 318.1647,302.0659 319.1677,302.0659 C321.5547,302.0659 323.3087,302.8349 324.4317,304.3749 C325.5527,305.9139 326.1147,308.0089 326.1147,310.6579 L326.1147,321.2569 L321.1367,321.2569 Z" id="Fill-121" fill="#0096D9"></path>
            <path d="M341.0449,320.5049 C340.6389,320.8399 340.0899,321.1139 339.3979,321.3289 C338.7049,321.5439 337.9779,321.6509 337.2139,321.6509 C336.4439,321.6509 335.7469,321.5139 335.1219,321.2389 C334.4969,320.9649 333.9689,320.5769 333.5349,320.0749 C333.1029,319.5739 332.7659,318.9779 332.5249,318.2849 C332.2849,317.5929 332.1649,316.8289 332.1649,315.9939 L332.1649,307.1139 L329.0149,307.1139 L329.0149,302.4589 L332.1649,302.4589 L332.1649,297.6249 L337.1429,295.1549 L337.1429,302.4589 L341.6529,302.4589 L341.6529,307.1139 L337.1429,307.1139 L337.1429,314.6689 C337.1429,315.5759 337.2969,316.1789 337.6069,316.4769 C337.9179,316.7759 338.3709,316.9249 338.9679,316.9249 C339.4219,316.9249 339.8459,316.8169 340.2389,316.6029 C340.6329,316.3879 341.1399,316.0179 341.7609,315.4919 L341.0449,320.5049 Z" id="Fill-122" fill="#0096D9"></path>
            <path d="M371.873,303.4971 C371.419,302.6381 370.828,301.9701 370.101,301.4921 C369.372,301.0161 368.435,300.7761 367.29,300.7761 C366.358,300.7761 365.523,300.9741 364.783,301.3671 C364.043,301.7611 363.423,302.3101 362.922,303.0141 C362.42,303.7191 362.038,304.5541 361.775,305.5201 C361.513,306.4871 361.382,307.5561 361.382,308.7261 C361.382,309.8481 361.513,310.8921 361.775,311.8581 C362.038,312.8251 362.426,313.6661 362.939,314.3831 C363.452,315.0991 364.079,315.6591 364.819,316.0651 C365.559,316.4721 366.394,316.6741 367.325,316.6741 C368.472,316.6741 369.408,316.4231 370.137,315.9221 C370.864,315.4211 371.562,314.6091 372.23,313.4871 L376.456,315.9941 C375.597,317.7841 374.409,319.1751 372.894,320.1651 C371.377,321.1561 369.474,321.6511 367.183,321.6511 C365.535,321.6511 364.043,321.3471 362.707,320.7381 C361.369,320.1291 360.218,319.2651 359.251,318.1421 C358.284,317.0201 357.538,315.6661 357.014,314.0781 C356.488,312.4911 356.226,310.7071 356.226,308.7261 C356.226,306.8151 356.5,305.0671 357.05,303.4791 C357.599,301.8931 358.362,300.5321 359.341,299.3971 C360.319,298.2651 361.489,297.3811 362.85,296.7481 C364.211,296.1161 365.714,295.7991 367.361,295.7991 C368.53,295.7991 369.593,295.9361 370.548,296.2111 C371.503,296.4851 372.356,296.8681 373.108,297.3561 C373.86,297.8471 374.517,298.4311 375.077,299.1111 C375.638,299.7921 376.121,300.5381 376.527,301.3501 L371.873,303.4971 Z" id="Fill-123" fill="#0096D9"></path>
            <path d="M390.2061,308.4922 C390.0621,308.0982 389.8531,307.7402 389.5791,307.4182 C389.3051,307.0962 388.9641,306.8402 388.5591,306.6482 C388.1521,306.4582 387.6761,306.3622 387.1271,306.3622 C386.2191,306.3622 385.5031,306.6842 384.9781,307.3292 C384.4531,307.9732 384.1431,308.7732 384.0471,309.7272 L390.4921,309.7272 C390.4441,309.2982 390.3491,308.8872 390.2061,308.4922 M395.2721,312.7892 C395.2601,313.0402 395.2421,313.2612 395.2191,313.4512 L383.9761,313.4512 C384.0231,314.0962 384.1661,314.6452 384.4051,315.0982 C384.6441,315.5522 384.9421,315.9162 385.3011,316.1902 C385.6581,316.4652 386.0581,316.6682 386.5001,316.7992 C386.9411,316.9302 387.3891,316.9962 387.8431,316.9962 C388.5351,316.9962 389.1551,316.8772 389.7041,316.6382 C390.2531,316.3992 390.7071,316.0772 391.0651,315.6722 L394.5741,318.6072 C393.8101,319.5872 392.8131,320.3392 391.5841,320.8632 C390.3541,321.3882 389.1071,321.6512 387.8431,321.6512 C386.4821,321.6512 385.2591,321.4182 384.1731,320.9532 C383.0861,320.4872 382.1611,319.8312 381.3971,318.9832 C380.6341,318.1372 380.0431,317.1092 379.6251,315.9042 C379.2071,314.6992 378.9991,313.3562 378.9991,311.8762 C378.9991,310.4432 379.2141,309.1252 379.6431,307.9202 C380.0731,306.7152 380.6641,305.6762 381.4151,304.8042 C382.1671,303.9332 383.0501,303.2592 384.0651,302.7812 C385.0791,302.3042 386.1841,302.0652 387.3771,302.0652 C388.6181,302.0652 389.7341,302.3222 390.7251,302.8352 C391.7151,303.3482 392.5451,304.0532 393.2141,304.9472 C393.8821,305.8432 394.3951,306.8882 394.7531,308.0812 C395.1111,309.2742 395.2901,310.5392 395.2901,311.8762 C395.2901,312.2342 395.2841,312.5382 395.2721,312.7892" id="Fill-124" fill="#0096D9"></path>
            <path d="M410.5781,321.2569 L410.5781,311.0879 C410.5781,309.4179 410.3061,308.2719 409.7601,307.6519 C409.2131,307.0299 408.4301,306.7199 407.4091,306.7199 C406.3891,306.7199 405.5991,307.0249 405.0411,307.6329 C404.4831,308.2419 404.2051,309.3579 404.2051,310.9809 L404.2051,321.2569 L399.2281,321.2569 L399.2281,302.4589 L404.2051,302.4589 L404.2051,303.7119 C404.6351,303.2589 405.2251,302.8709 405.9771,302.5489 C406.7291,302.2269 407.6061,302.0659 408.6091,302.0659 C410.9961,302.0659 412.7501,302.8349 413.8731,304.3749 C414.9941,305.9139 415.5561,308.0089 415.5561,310.6579 L415.5561,321.2569 L410.5781,321.2569 Z" id="Fill-125" fill="#0096D9"></path>
            <path d="M430.4873,320.5049 C430.0813,320.8399 429.5323,321.1139 428.8403,321.3289 C428.1473,321.5439 427.4203,321.6509 426.6563,321.6509 C425.8863,321.6509 425.1893,321.5139 424.5643,321.2389 C423.9393,320.9649 423.4113,320.5769 422.9773,320.0749 C422.5453,319.5739 422.2083,318.9779 421.9673,318.2849 C421.7273,317.5929 421.6073,316.8289 421.6073,315.9939 L421.6073,307.1139 L418.4573,307.1139 L418.4573,302.4589 L421.6073,302.4589 L421.6073,297.6249 L426.5853,295.1549 L426.5853,302.4589 L431.0953,302.4589 L431.0953,307.1139 L426.5853,307.1139 L426.5853,314.6689 C426.5853,315.5759 426.7393,316.1789 427.0493,316.4769 C427.3603,316.7759 427.8133,316.9249 428.4103,316.9249 C428.8643,316.9249 429.2883,316.8169 429.6813,316.6029 C430.0753,316.3879 430.5823,316.0179 431.2033,315.4919 L430.4873,320.5049 Z" id="Fill-126" fill="#0096D9"></path>
            <path d="M445.2744,308.4922 C445.1304,308.0982 444.9214,307.7402 444.6474,307.4182 C444.3734,307.0962 444.0324,306.8402 443.6274,306.6482 C443.2204,306.4582 442.7444,306.3622 442.1954,306.3622 C441.2874,306.3622 440.5714,306.6842 440.0464,307.3292 C439.5214,307.9732 439.2114,308.7732 439.1154,309.7272 L445.5604,309.7272 C445.5124,309.2982 445.4174,308.8872 445.2744,308.4922 M450.3404,312.7892 C450.3284,313.0402 450.3104,313.2612 450.2874,313.4512 L439.0444,313.4512 C439.0914,314.0962 439.2344,314.6452 439.4734,315.0982 C439.7124,315.5522 440.0104,315.9162 440.3694,316.1902 C440.7264,316.4652 441.1264,316.6682 441.5684,316.7992 C442.0094,316.9302 442.4574,316.9962 442.9114,316.9962 C443.6034,316.9962 444.2234,316.8772 444.7724,316.6382 C445.3214,316.3992 445.7754,316.0772 446.1334,315.6722 L449.6424,318.6072 C448.8784,319.5872 447.8814,320.3392 446.6524,320.8632 C445.4224,321.3882 444.1754,321.6512 442.9114,321.6512 C441.5504,321.6512 440.3274,321.4182 439.2414,320.9532 C438.1544,320.4872 437.2294,319.8312 436.4654,318.9832 C435.7024,318.1372 435.1114,317.1092 434.6934,315.9042 C434.2754,314.6992 434.0674,313.3562 434.0674,311.8762 C434.0674,310.4432 434.2824,309.1252 434.7114,307.9202 C435.1414,306.7152 435.7324,305.6762 436.4834,304.8042 C437.2354,303.9332 438.1184,303.2592 439.1334,302.7812 C440.1474,302.3042 441.2524,302.0652 442.4454,302.0652 C443.6864,302.0652 444.8024,302.3222 445.7934,302.8352 C446.7834,303.3482 447.6134,304.0532 448.2824,304.9472 C448.9504,305.8432 449.4634,306.8882 449.8214,308.0812 C450.1794,309.2742 450.3584,310.5392 450.3584,311.8762 C450.3584,312.2342 450.3524,312.5382 450.3404,312.7892" id="Fill-127" fill="#0096D9"></path>
            <path d="M465.3252,308.2237 C464.9192,307.8557 464.4772,307.5547 464.0012,307.3217 C463.5232,307.0877 463.0102,306.9707 462.4612,306.9707 C461.9832,306.9707 461.5482,307.0307 461.1542,307.1507 C460.7612,307.2697 460.4262,307.4857 460.1512,307.7967 C459.8772,308.1077 459.6622,308.5267 459.5072,309.0527 C459.3512,309.5787 459.2742,310.2487 459.2742,311.0627 L459.2742,321.2567 L454.2982,321.2567 L454.2982,302.4587 L459.2742,302.4587 L459.2742,303.7007 C459.7042,303.2507 460.2352,302.8657 460.8682,302.5447 C461.5002,302.2257 462.2582,302.0657 463.1412,302.0657 C463.9522,302.0657 464.6502,302.2027 465.2362,302.4767 C465.8202,302.7517 466.2802,303.0557 466.6142,303.3897 L465.3252,308.2237 Z" id="Fill-128" fill="#0096D9"></path>
        </g>
    </g>
</svg>